<svg 
 xmlns="http://www.w3.org/2000/svg"
 xmlns:xlink="http://www.w3.org/1999/xlink"
 width="144px" height="46px">
<path fill-rule="evenodd"  fill="rgb(50, 150, 250)"
 d="M144.001,20.438 L144.001,23.412 L134.986,23.412 L134.986,27.969 L131.664,27.969 L131.664,23.412 L121.035,23.412 L121.035,20.438 L131.664,20.438 L131.664,17.920 L123.241,17.920 L123.241,15.162 C124.245,13.412 125.159,11.685 125.982,9.982 L121.699,9.982 L121.699,7.008 L127.334,7.008 C127.753,6.033 128.144,5.066 128.509,4.107 L132.020,4.634 L130.952,7.008 L143.052,7.008 L143.052,9.982 L129.528,9.982 C128.730,11.581 127.868,13.236 126.943,14.946 L131.664,14.946 L131.664,11.157 L134.986,11.157 L134.986,14.946 L141.771,14.946 L141.771,17.920 L134.986,17.920 L134.986,20.438 L144.001,20.438 ZM125.105,32.478 L125.105,34.216 C124.481,33.882 123.773,33.715 122.982,33.715 C122.079,33.715 121.357,33.979 120.817,34.505 C120.276,35.032 120.005,35.720 120.005,36.571 C120.005,37.399 120.262,38.065 120.775,38.571 C121.288,39.076 121.981,39.328 122.856,39.328 C123.680,39.328 124.429,39.147 125.105,38.783 L125.105,40.434 C124.433,40.736 123.556,40.886 122.475,40.886 C121.083,40.886 119.978,40.506 119.162,39.745 C118.345,38.984 117.936,37.969 117.936,36.701 C117.936,35.368 118.392,34.277 119.304,33.429 C120.217,32.580 121.395,32.157 122.838,32.157 C123.741,32.157 124.497,32.263 125.105,32.478 ZM116.907,18.519 L105.542,18.519 L105.542,19.887 L102.458,19.887 L102.458,16.122 L119.991,16.122 L119.991,19.887 L116.907,19.887 L116.907,18.519 ZM104.665,15.162 L104.665,9.695 L117.974,9.695 L117.974,15.162 L104.665,15.162 ZM114.890,11.805 L107.749,11.805 L107.749,13.052 L114.890,13.052 L114.890,11.805 ZM103.194,6.313 L109.623,6.313 C109.433,5.866 109.228,5.377 109.006,4.850 L112.494,4.251 C112.747,4.922 113.000,5.610 113.253,6.313 L119.849,6.313 L119.849,8.711 L103.194,8.711 L103.194,6.313 ZM101.746,27.849 L98.804,27.849 L98.804,16.697 C98.314,17.624 97.800,18.512 97.262,19.359 C97.056,18.080 96.756,16.641 96.361,15.042 C97.911,12.405 99.279,8.823 100.465,4.298 L103.407,4.946 C102.901,6.737 102.347,8.455 101.746,10.102 L101.746,27.849 ZM90.761,22.884 L93.371,21.470 C94.415,22.812 95.237,24.092 95.838,25.306 L93.205,26.889 C92.414,25.386 91.599,24.052 90.761,22.884 ZM72.445,9.718 L77.938,9.718 C77.621,9.271 77.340,8.903 77.095,8.615 L78.957,7.920 L73.631,7.920 L73.631,5.857 L82.149,5.857 L81.532,4.442 L85.565,4.083 C85.779,4.562 86.008,5.154 86.253,5.857 L94.106,5.857 L94.106,7.920 L88.471,7.920 L90.619,8.687 L89.729,9.718 L95.459,9.718 L95.459,11.877 L72.445,11.877 L72.445,9.718 ZM81.567,9.718 L86.182,9.718 C86.672,8.983 87.056,8.384 87.333,7.920 L80.203,7.920 C80.702,8.559 81.156,9.159 81.567,9.718 ZM76.905,22.477 C76.257,24.140 75.537,25.682 74.746,27.105 L72.113,25.786 C72.967,24.219 73.623,22.748 74.082,21.373 L76.905,22.477 ZM65.256,23.772 L70.476,23.772 L70.476,26.841 L55.980,26.841 L55.980,23.772 L61.698,23.772 L61.698,17.824 L55.505,17.824 L55.505,14.755 L61.698,14.755 L61.698,9.479 L57.142,9.742 C56.968,8.831 56.723,7.752 56.407,6.505 C61.705,6.265 66.182,5.938 69.835,5.521 C69.883,5.809 70.120,6.888 70.547,8.759 C68.918,8.927 67.154,9.087 65.256,9.239 L65.256,14.755 L71.401,14.755 L71.401,17.824 L65.256,17.824 L65.256,23.772 ZM54.176,27.777 L50.950,27.777 L50.950,16.457 C50.309,17.457 49.629,18.432 48.910,19.383 C48.688,18.408 48.324,16.969 47.818,15.066 C49.716,12.428 51.361,8.895 52.753,4.466 L56.075,5.449 C55.529,7.176 54.896,8.847 54.176,10.462 L54.176,27.777 ZM30.679,37.190 C30.679,37.190 28.753,38.543 24.033,41.353 C21.146,43.072 19.942,45.988 19.942,45.988 C19.942,45.988 18.738,43.066 15.851,41.347 C11.176,38.563 9.245,37.190 9.209,37.190 L9.205,37.190 C3.669,33.572 -0.001,27.319 -0.001,20.181 C-0.001,9.048 8.928,0.007 19.942,0.007 C30.956,0.007 39.885,9.044 39.885,20.177 C39.885,27.316 36.212,33.572 30.674,37.190 L30.679,37.190 ZM5.295,22.490 C5.418,23.278 5.606,24.268 5.846,24.785 L5.840,24.785 C5.905,24.785 5.982,25.184 6.055,25.381 C6.092,25.481 6.123,25.582 6.162,25.681 C6.289,26.001 6.425,26.317 6.572,26.626 C6.594,26.671 6.618,26.713 6.640,26.757 C6.769,27.021 6.902,27.281 7.046,27.536 C7.104,27.640 7.169,27.739 7.230,27.842 C7.343,28.033 7.457,28.223 7.578,28.408 C7.653,28.522 7.733,28.631 7.810,28.742 C7.927,28.910 8.043,29.077 8.166,29.239 C8.253,29.353 8.344,29.464 8.434,29.576 C8.556,29.728 8.680,29.880 8.808,30.027 C8.904,30.138 9.003,30.245 9.103,30.353 C9.233,30.495 9.366,30.634 9.502,30.771 C9.606,30.875 9.712,30.977 9.819,31.078 C9.959,31.211 10.101,31.340 10.246,31.467 C10.357,31.563 10.467,31.659 10.580,31.752 C10.730,31.876 10.883,31.994 11.038,32.112 C11.153,32.200 11.268,32.288 11.386,32.372 C11.548,32.488 11.714,32.598 11.880,32.707 C11.997,32.784 12.112,32.862 12.231,32.935 C12.411,33.046 12.595,33.150 12.780,33.253 C12.892,33.316 13.002,33.381 13.115,33.441 C13.333,33.555 13.557,33.660 13.781,33.764 C13.866,33.804 13.949,33.848 14.035,33.886 C14.348,34.023 14.666,34.150 14.989,34.266 C15.057,34.290 15.128,34.309 15.197,34.333 C15.453,34.420 15.711,34.504 15.974,34.578 C15.993,34.583 16.012,34.591 16.031,34.596 C16.045,34.600 16.058,34.599 16.071,34.602 C16.336,34.674 16.600,34.744 16.871,34.802 C16.871,34.802 16.874,34.483 16.874,33.935 C16.874,33.934 16.874,33.932 16.874,33.931 C16.874,33.823 16.870,33.705 16.864,33.579 C16.863,33.549 16.862,33.516 16.861,33.485 C16.856,33.372 16.850,33.253 16.842,33.127 C16.838,33.077 16.835,33.028 16.832,32.976 C16.822,32.844 16.811,32.705 16.798,32.561 C16.794,32.522 16.792,32.486 16.788,32.446 C16.770,32.264 16.749,32.074 16.725,31.876 C16.719,31.828 16.712,31.778 16.706,31.728 C16.686,31.572 16.663,31.413 16.639,31.248 C16.629,31.182 16.619,31.117 16.608,31.050 C16.579,30.865 16.546,30.677 16.510,30.484 C16.503,30.447 16.497,30.411 16.490,30.374 C16.446,30.146 16.397,29.912 16.344,29.673 C16.329,29.610 16.313,29.545 16.298,29.480 C16.255,29.297 16.209,29.112 16.159,28.923 C16.140,28.848 16.120,28.773 16.099,28.697 C16.037,28.470 15.970,28.240 15.897,28.008 C15.889,27.982 15.882,27.956 15.874,27.930 C15.793,27.674 15.704,27.415 15.610,27.155 C15.583,27.081 15.555,27.008 15.527,26.934 C15.453,26.737 15.374,26.538 15.292,26.339 C15.259,26.260 15.227,26.183 15.194,26.104 C15.079,25.837 14.959,25.570 14.828,25.302 C13.375,22.327 8.021,21.797 5.985,21.704 C5.559,21.684 5.228,22.065 5.295,22.490 ZM34.072,15.572 C32.163,9.524 26.559,5.144 19.942,5.144 C13.315,5.144 7.703,9.366 5.803,15.576 C5.664,16.028 6.013,16.482 6.480,16.452 C8.041,16.352 11.404,16.159 15.322,16.060 C14.380,17.150 13.806,18.572 13.806,20.133 C13.806,23.559 16.553,26.336 19.942,26.336 C23.331,26.336 26.078,23.559 26.078,20.133 C26.078,18.572 25.504,17.150 24.562,16.060 C28.473,16.159 31.831,16.353 33.396,16.453 C33.865,16.483 34.215,16.025 34.072,15.572 ZM30.781,30.353 C30.880,30.245 30.979,30.138 31.076,30.027 C31.204,29.880 31.327,29.728 31.450,29.576 C31.540,29.464 31.631,29.353 31.717,29.239 C31.841,29.077 31.957,28.910 32.074,28.742 C32.151,28.631 32.231,28.522 32.305,28.408 C32.427,28.223 32.540,28.033 32.654,27.842 C32.715,27.739 32.779,27.640 32.838,27.536 C32.981,27.281 33.115,27.021 33.244,26.757 C33.265,26.713 33.290,26.671 33.312,26.626 C33.459,26.317 33.595,26.001 33.721,25.681 C33.760,25.582 33.792,25.481 33.829,25.381 C33.902,25.184 33.978,24.785 34.043,24.785 L34.038,24.785 C34.277,24.268 34.466,23.278 34.589,22.490 C34.656,22.065 34.325,21.684 33.899,21.704 C31.862,21.797 26.509,22.327 25.055,25.302 C24.925,25.570 24.805,25.837 24.690,26.104 C24.656,26.183 24.625,26.260 24.592,26.339 C24.510,26.538 24.431,26.737 24.357,26.934 C24.329,27.008 24.301,27.081 24.274,27.155 C24.180,27.415 24.091,27.674 24.010,27.930 C24.001,27.956 23.994,27.982 23.986,28.008 C23.914,28.240 23.847,28.470 23.785,28.697 C23.764,28.773 23.744,28.848 23.724,28.923 C23.675,29.112 23.629,29.297 23.586,29.480 C23.571,29.545 23.554,29.610 23.540,29.673 C23.487,29.911 23.437,30.145 23.394,30.373 C23.386,30.412 23.380,30.449 23.373,30.487 C23.338,30.679 23.305,30.867 23.276,31.050 C23.265,31.117 23.255,31.182 23.245,31.248 C23.220,31.413 23.198,31.572 23.178,31.728 C23.172,31.778 23.164,31.828 23.158,31.876 C23.134,32.074 23.113,32.264 23.096,32.446 C23.092,32.486 23.089,32.522 23.086,32.561 C23.073,32.705 23.061,32.844 23.052,32.976 C23.048,33.028 23.045,33.077 23.041,33.127 C23.033,33.253 23.027,33.372 23.021,33.485 C23.020,33.516 23.021,33.549 23.019,33.579 C23.014,33.705 23.010,33.823 23.010,33.931 C23.010,33.932 23.010,33.934 23.010,33.935 C23.010,34.483 23.013,34.802 23.013,34.802 C23.283,34.744 23.549,34.674 23.814,34.602 C23.827,34.599 23.840,34.600 23.853,34.596 C23.873,34.591 23.891,34.583 23.910,34.578 C24.173,34.504 24.431,34.420 24.687,34.333 C24.756,34.309 24.827,34.290 24.895,34.266 C25.218,34.150 25.536,34.023 25.849,33.886 C25.935,33.848 26.018,33.804 26.103,33.764 C26.327,33.660 26.551,33.555 26.769,33.441 C26.882,33.381 26.992,33.315 27.104,33.253 C27.288,33.150 27.473,33.047 27.653,32.936 C27.772,32.862 27.887,32.784 28.004,32.707 C28.170,32.598 28.336,32.488 28.498,32.372 C28.616,32.288 28.731,32.200 28.846,32.112 C29.000,31.994 29.154,31.876 29.303,31.752 C29.416,31.659 29.527,31.563 29.638,31.467 C29.782,31.340 29.925,31.211 30.065,31.078 C30.172,30.977 30.278,30.875 30.381,30.771 C30.518,30.634 30.650,30.495 30.781,30.353 ZM19.942,24.785 C17.400,24.785 15.340,22.703 15.340,20.133 C15.340,17.564 17.400,15.481 19.942,15.481 C22.484,15.481 24.544,17.564 24.544,20.133 C24.544,22.703 22.484,24.785 19.942,24.785 ZM55.715,34.587 C55.715,35.161 55.531,35.653 55.163,36.064 C54.795,36.475 54.290,36.763 53.645,36.930 L53.645,36.952 C54.071,37.083 54.542,37.511 55.059,38.238 L56.800,40.739 L54.534,40.739 L53.084,38.543 C52.786,38.089 52.542,37.797 52.351,37.666 C52.160,37.535 51.957,37.470 51.743,37.470 L51.146,37.470 L51.146,40.739 L49.178,40.739 L49.178,32.298 L52.417,32.298 C54.615,32.298 55.715,33.061 55.715,34.587 ZM51.146,33.666 L51.146,36.096 L52.112,36.096 C52.574,36.096 52.944,35.974 53.225,35.729 C53.505,35.483 53.645,35.178 53.645,34.810 C53.645,34.048 53.146,33.666 52.148,33.666 L51.146,33.666 ZM62.962,33.770 L59.675,33.770 L59.675,35.759 L62.729,35.759 L62.729,37.224 L59.675,37.224 L59.675,39.268 L63.176,39.268 L63.176,40.739 L57.707,40.739 L57.707,32.298 L62.962,32.298 L62.962,33.770 ZM70.608,37.606 C70.858,37.959 71.011,38.182 71.067,38.276 L71.097,38.276 C71.057,38.073 71.037,37.684 71.037,37.110 L71.037,32.298 L72.904,32.298 L72.904,40.739 L70.888,40.739 L66.976,35.279 C66.773,34.996 66.625,34.767 66.534,34.592 L66.504,34.592 C66.540,34.883 66.558,35.332 66.558,35.938 L66.558,40.739 L64.691,40.739 L64.691,32.298 L66.839,32.298 L70.608,37.606 ZM77.796,35.524 C77.827,35.590 77.901,35.812 78.016,36.189 L78.040,36.189 C78.088,35.935 78.153,35.719 78.237,35.541 L79.830,32.298 L81.917,32.298 L78.899,37.726 L78.899,40.739 L76.930,40.739 L76.930,37.758 L73.996,32.298 L76.245,32.298 L77.796,35.524 ZM85.728,33.699 L84.934,33.699 L84.934,39.339 L85.728,39.339 L85.728,40.739 L82.185,40.739 L82.185,39.339 L82.966,39.339 L82.966,33.699 L82.185,33.699 L82.185,32.298 L85.728,32.298 L85.728,33.699 ZM86.277,27.489 L81.437,27.489 C79.033,27.489 77.831,26.513 77.831,24.563 L77.831,21.470 L80.962,21.470 L80.962,23.700 C80.962,24.467 81.390,24.851 82.244,24.851 L85.257,24.851 C86.111,24.851 86.700,24.689 87.024,24.365 C87.349,24.041 87.574,23.212 87.700,21.877 C88.444,22.309 89.432,22.773 90.666,23.268 C90.239,25.130 89.689,26.300 89.017,26.776 C88.345,27.251 87.432,27.489 86.277,27.489 ZM74.794,12.956 L93.039,12.956 L93.039,20.966 L84.842,20.966 C85.585,21.557 86.174,22.061 86.609,22.477 L84.379,24.515 C83.746,23.748 82.900,22.877 81.840,21.901 L82.920,20.966 L74.794,20.966 L74.794,12.956 ZM77.854,18.999 L89.978,18.999 L89.978,17.824 L77.854,17.824 L77.854,18.999 ZM77.854,16.097 L89.978,16.097 L89.978,14.922 L77.854,14.922 L77.854,16.097 ZM93.446,33.770 L90.810,33.770 L90.810,40.739 L88.836,40.739 L88.836,33.770 L86.205,33.770 L86.205,32.298 L93.446,32.298 L93.446,33.770 ZM97.466,33.699 L96.672,33.699 L96.672,39.339 L97.466,39.339 L97.466,40.739 L93.923,40.739 L93.923,39.339 L94.704,39.339 L94.704,33.699 L93.923,33.699 L93.923,32.298 L97.466,32.298 L97.466,33.699 ZM104.725,37.606 C104.975,37.959 105.128,38.182 105.184,38.276 L105.214,38.276 C105.174,38.073 105.154,37.684 105.154,37.110 L105.154,32.298 L107.021,32.298 L107.021,40.739 L105.005,40.739 L101.092,35.279 C100.890,34.996 100.742,34.767 100.651,34.592 L100.621,34.592 C100.657,34.883 100.675,35.332 100.675,35.938 L100.675,40.739 L98.808,40.739 L98.808,32.298 L100.955,32.298 L104.725,37.606 ZM106.396,24.803 C107.219,24.883 108.176,24.923 109.267,24.923 C110.042,24.971 110.430,24.539 110.430,23.628 L110.430,22.716 L104.095,22.716 L104.095,20.270 L118.568,20.270 L118.568,22.716 L113.538,22.716 L113.538,24.515 C113.538,26.513 112.708,27.561 111.047,27.657 C110.082,27.753 108.721,27.785 106.966,27.753 C106.855,27.017 106.665,26.034 106.396,24.803 ZM113.695,32.157 C114.681,32.157 115.542,32.284 116.278,32.538 L116.278,34.244 C115.562,33.862 114.687,33.671 113.653,33.671 C112.763,33.671 112.041,33.937 111.488,34.467 C110.936,34.998 110.659,35.697 110.659,36.565 C110.659,37.448 110.909,38.136 111.408,38.630 C111.907,39.124 112.588,39.371 113.451,39.371 C113.963,39.371 114.383,39.299 114.709,39.154 L114.709,37.421 L112.842,37.421 L112.842,35.977 L116.678,35.977 L116.678,40.172 C115.775,40.649 114.665,40.886 113.349,40.886 C111.878,40.886 110.717,40.509 109.866,39.753 C109.015,38.998 108.590,37.964 108.590,36.653 C108.590,35.322 109.058,34.241 109.994,33.407 C110.931,32.574 112.164,32.157 113.695,32.157 ZM128.708,35.704 L132.644,35.704 L132.644,32.298 L134.613,32.298 L134.613,40.739 L132.644,40.739 L132.644,37.257 L128.708,37.257 L128.708,40.739 L126.740,40.739 L126.740,32.298 L128.708,32.298 L128.708,35.704 ZM142.026,33.770 L138.740,33.770 L138.740,35.759 L141.794,35.759 L141.794,37.224 L138.740,37.224 L138.740,39.268 L142.241,39.268 L142.241,40.739 L136.772,40.739 L136.772,32.298 L142.026,32.298 L142.026,33.770 Z"/>
</svg>